<svg xmlns="http://www.w3.org/2000/svg" height="60" width="60" version="1.1" viewBox="0 0 59.999999 59.999999">
 <g transform="translate(0,-992.3622)">
  <g fill="#011936" transform="matrix(.80761172 0 0 .80761172 5.7716483 196.6905)">
   <path fill="#011936" d="m35.560382 1032.3151h-13.247304v-1.3247q0-3.3816 0.766949-5.4733 0.76695-2.1265 2.265987-3.8696 1.533898-1.743 6.832819-6.1356 2.823768-2.3008 2.823768-4.2182 0-1.9173-1.150424-2.9632-1.115562-1.0807-3.41641-1.0807-2.475154 0-4.113636 1.6385-1.603621 1.6385-2.056819 5.7173l-13.526194-1.6734q0.697226-7.4603 5.403505-11.9923 4.741141-4.56682 14.502312-4.56682 7.599769 0 12.271187 3.17238 6.344761 4.28794 6.344761 11.43454 0 2.9632-1.638482 5.7172-1.638482 2.7541-6.693375 6.7283-3.520994 2.7889-4.462249 4.4971-0.906395 1.6733-0.906395 4.3925zm-13.700501 3.521h14.18856v12.5152h-14.18856v-12.5152z"/>
  </g>
 </g>
</svg>
