<svg xmlns="http://www.w3.org/2000/svg" width="60" height="60" id="svg2" version="1.1"><g id="layer1" transform="translate(0 -992.362)"><g style="line-height:125%;text-align:center" id="text4370" transform="translate(5.772 196.69) scale(.80761)" font-style="normal" font-weight="400" font-size="71.396" font-family="sans-serif" letter-spacing="0" word-spacing="0" text-anchor="middle" fill="#011936" fill-opacity="1" stroke="none" stroke-width="1" stroke-linecap="butt" stroke-linejoin="miter" stroke-opacity="1"><path d="M35.56 1032.315H22.313v-1.325q0-3.381.767-5.473.767-2.126 2.266-3.87 1.534-1.743 6.833-6.135 2.824-2.3 2.824-4.218 0-1.918-1.15-2.963-1.116-1.081-3.417-1.081-2.475 0-4.114 1.638-1.603 1.639-2.057 5.718l-13.526-1.674q.697-7.46 5.404-11.992 4.74-4.567 14.502-4.567 7.6 0 12.271 3.172 6.345 4.288 6.345 11.435 0 2.963-1.639 5.717-1.638 2.754-6.693 6.729-3.521 2.788-4.462 4.497-.907 1.673-.907 4.392zm-13.7 3.521h14.188v12.515H21.86v-12.515z" style="-inkscape-font-specification:'Arial Black, '" id="path4375" font-style="normal" font-variant="normal" font-weight="400" font-stretch="normal" font-family="Arial Black" fill="#011936" fill-opacity="1"/></g></g></svg>