<svg xmlns="http://www.w3.org/2000/svg" version="1.0" viewBox="0 0 90 40.000011">
 <g transform="translate(-4.9999998,-5)">
  <path d="m28 7.0000018c14.174544 0.6805542 28.193404-3.85431 43 18.0000002-11.186962 20.271041-27.302633 18.186866-43 18 6.833346-11.75 6.833321-23.750001 0-36.0000002z" fill-rule="evenodd" fill="#fff"/>
  <circle cx="75" cy="25.000002" r="3" fill="#fff"/>
  <g stroke="#000" fill="none">
   <path d="m78.333332 25h16.666668" stroke-width="2.00000024"/>
   <path d="m30.385717 15h-25.3857172" stroke-width="1.99999988"/>
   <path d="m31.362091 35h-26.3620912" stroke-width="1.99999976"/>
  </g>
  <g fill-rule="evenodd" transform="translate(26.5,-39.5)">
   <path d="m-2.25 81.500005c-1.597374 2.6444-2.25 3-2.25 3h-3.65625l2-2.4375s5.65625-7.000054 5.65625-17.562505-5.65625-17.5625-5.65625-17.5625l-2-2.4375h3.65625c0.78125 0.9375 1.421875 1.65625 2.21875 3 1.872719 3.099815 4.78125 9.026646 4.78125 17 0 7.95065-2.896697 13.879425-4.75 17.000005z"/>
   <path d="m-2.40625 44.5 2 2.4375s5.65625 7.000049 5.65625 17.5625-5.65625 17.5625-5.65625 17.5625l-2 2.4375h3.15625 14c2.408076 0.000001 7.689699 0.02451 13.625-2.40625 5.935301-2.430764 12.536536-7.343266 17.6875-16.875l-1.3125-0.71875 1.3125-0.71875c-10.303113-19.06566-26.555926-19.28125-31.3125-19.28125h-14-3.15625zm5.875 3h11.28125c4.684173 0 18.28685-0.130207 27.96875 17-4.766786 8.429075-10.521281 12.68391-15.71875 14.8125-5.360661 2.195424-9.841925 2.187501-12.25 2.1875h-11.25c1.8735884-3.108434 4.75-9.04935 4.75-17 0-7.973354-2.9085314-13.900185-4.78125-17z"/>
  </g>
  <circle cx="75" stroke="#000" cy="25" r="4" stroke-width="3" fill="none"/>
 </g>
</svg>
