<?xml version="1.0" encoding="UTF-8" standalone="no"?>
<!-- Created with Inkscape (http://www.inkscape.org/) -->

<svg
   xmlns:dc="http://purl.org/dc/elements/1.1/"
   xmlns:cc="http://creativecommons.org/ns#"
   xmlns:rdf="http://www.w3.org/1999/02/22-rdf-syntax-ns#"
   xmlns:svg="http://www.w3.org/2000/svg"
   xmlns="http://www.w3.org/2000/svg"
   xmlns:sodipodi="http://sodipodi.sourceforge.net/DTD/sodipodi-0.dtd"
   xmlns:inkscape="http://www.inkscape.org/namespaces/inkscape"
   width="90"
   height="40.000011"
   id="svg2"
   sodipodi:version="0.32"
   inkscape:version="0.91 r13725"
   version="1.0"
   sodipodi:docname="xor.svg"
   inkscape:output_extension="org.inkscape.output.svg.inkscape">
  <defs
     id="defs4">
    <inkscape:perspective
       sodipodi:type="inkscape:persp3d"
       inkscape:vp_x="0 : 15 : 1"
       inkscape:vp_y="0 : 1000 : 0"
       inkscape:vp_z="50 : 15 : 1"
       inkscape:persp3d-origin="25 : 10 : 1"
       id="perspective2714" />
    <inkscape:perspective
       sodipodi:type="inkscape:persp3d"
       inkscape:vp_x="0 : 0.5 : 1"
       inkscape:vp_y="0 : 1000 : 0"
       inkscape:vp_z="1 : 0.5 : 1"
       inkscape:persp3d-origin="0.5 : 0.33333333 : 1"
       id="perspective2806" />
    <inkscape:perspective
       id="perspective2819"
       inkscape:persp3d-origin="372.04724 : 350.78739 : 1"
       inkscape:vp_z="744.09448 : 526.18109 : 1"
       inkscape:vp_y="0 : 1000 : 0"
       inkscape:vp_x="0 : 526.18109 : 1"
       sodipodi:type="inkscape:persp3d" />
    <inkscape:perspective
       id="perspective2777"
       inkscape:persp3d-origin="75 : 40 : 1"
       inkscape:vp_z="150 : 60 : 1"
       inkscape:vp_y="0 : 1000 : 0"
       inkscape:vp_x="0 : 60 : 1"
       sodipodi:type="inkscape:persp3d" />
    <inkscape:perspective
       id="perspective3275"
       inkscape:persp3d-origin="50 : 33.333333 : 1"
       inkscape:vp_z="100 : 50 : 1"
       inkscape:vp_y="0 : 1000 : 0"
       inkscape:vp_x="0 : 50 : 1"
       sodipodi:type="inkscape:persp3d" />
    <inkscape:perspective
       id="perspective5533"
       inkscape:persp3d-origin="32 : 21.333333 : 1"
       inkscape:vp_z="64 : 32 : 1"
       inkscape:vp_y="0 : 1000 : 0"
       inkscape:vp_x="0 : 32 : 1"
       sodipodi:type="inkscape:persp3d" />
    <inkscape:perspective
       id="perspective2557"
       inkscape:persp3d-origin="25 : 16.666667 : 1"
       inkscape:vp_z="50 : 25 : 1"
       inkscape:vp_y="0 : 1000 : 0"
       inkscape:vp_x="0 : 25 : 1"
       sodipodi:type="inkscape:persp3d" />
  </defs>
  <sodipodi:namedview
     id="base"
     pagecolor="#ffffff"
     bordercolor="#666666"
     borderopacity="1.0"
     inkscape:pageopacity="0.0"
     inkscape:pageshadow="2"
     inkscape:zoom="4"
     inkscape:cx="26.24123"
     inkscape:cy="-7.2018716"
     inkscape:document-units="px"
     inkscape:current-layer="layer1"
     showgrid="true"
     inkscape:grid-bbox="true"
     inkscape:grid-points="true"
     gridtolerance="10000"
     inkscape:window-width="1358"
     inkscape:window-height="663"
     inkscape:window-x="0"
     inkscape:window-y="36"
     inkscape:snap-bbox="true"
     inkscape:window-maximized="0"
     fit-margin-top="0"
     fit-margin-left="0"
     fit-margin-right="0"
     fit-margin-bottom="0">
    <inkscape:grid
       id="GridFromPre046Settings"
       type="xygrid"
       originx="-4.9999998"
       originy="-4.9999904"
       spacingx="1px"
       spacingy="1px"
       color="#0000ff"
       empcolor="#0000ff"
       opacity="0.2"
       empopacity="0.4"
       empspacing="5"
       visible="true"
       enabled="true" />
  </sodipodi:namedview>
  <metadata
     id="metadata7">
    <rdf:RDF>
      <cc:Work
         rdf:about="">
        <dc:format>image/svg+xml</dc:format>
        <dc:type
           rdf:resource="http://purl.org/dc/dcmitype/StillImage" />
        <dc:title />
      </cc:Work>
    </rdf:RDF>
  </metadata>
  <g
     inkscape:label="Layer 1"
     inkscape:groupmode="layer"
     id="layer1"
     transform="translate(-4.9999998,-5)">
    <path
       style="fill:#ffffff;fill-opacity:1;fill-rule:evenodd;stroke:none;stroke-width:1px;stroke-linecap:butt;stroke-linejoin:miter;stroke-opacity:1"
       d="m 28,7.0000018 c 6.912359,12.6063472 6.520313,24.5719572 0,36.0000002 15.763714,0.21134 31.527586,0.423237 42,-18 C 59.9598,5.2198975 43.741263,6.9404057 28,7.0000018 Z"
       id="path4734"
       inkscape:connector-curvature="0"
       sodipodi:nodetypes="cccc" />
    <path
       style="fill:none;stroke:#000000;stroke-width:2;stroke-linecap:butt;stroke-linejoin:miter;stroke-opacity:1"
       d="m 70,25 c 20,0 25,0 25,0"
       id="path3059"
       sodipodi:nodetypes="cc"
       inkscape:connector-curvature="0" />
    <path
       style="fill:none;stroke:#000000;stroke-width:1.99999988;stroke-linecap:butt;stroke-linejoin:miter;stroke-opacity:1"
       d="M 30.385717,15 4.9999998,15"
       id="path3061"
       inkscape:connector-curvature="0" />
    <path
       style="fill:none;stroke:#000000;stroke-width:1.99999976;stroke-linecap:butt;stroke-linejoin:miter;stroke-opacity:1"
       d="M 31.362091,35 4.9999998,35"
       id="path3944"
       inkscape:connector-curvature="0" />
    <g
       id="g2560"
       inkscape:label="Layer 1"
       transform="translate(26.5,-39.5)">
      <path
         id="path3516"
         style="fill:#000000;fill-opacity:1;fill-rule:evenodd;stroke:none;stroke-width:3;stroke-linecap:butt;stroke-linejoin:miter;stroke-opacity:1"
         d="m -2.25,81.500005 c -1.597374,2.6444 -2.25,3 -2.25,3 l -3.65625,0 2,-2.4375 c 0,0 5.65625,-7.000054 5.65625,-17.562505 0,-10.562451 -5.65625,-17.5625 -5.65625,-17.5625 l -2,-2.4375 3.65625,0 c 0.78125,0.9375 1.421875,1.65625 2.21875,3 1.872719,3.099815 4.78125,9.026646 4.78125,17 0,7.95065 -2.896697,13.879425 -4.75,17.000005 z"
         sodipodi:nodetypes="ccccsccccsc"
         inkscape:connector-curvature="0" />
      <path
         style="fill:#000000;fill-opacity:1;fill-rule:evenodd;stroke:none;stroke-width:3;stroke-linecap:butt;stroke-linejoin:miter;stroke-opacity:1"
         d="m -2.40625,44.5 2,2.4375 c 0,0 5.65625,7.000049 5.65625,17.5625 0,10.562451 -5.65625,17.5625 -5.65625,17.5625 l -2,2.4375 3.15625,0 14,0 c 2.408076,10e-7 7.689699,0.02451 13.625,-2.40625 5.935301,-2.430764 12.536536,-7.343266 17.6875,-16.875 L 44.75,64.5 46.0625,63.78125 C 35.759387,44.71559 19.506574,44.5 14.75,44.5 l -14,0 -3.15625,0 z m 5.875,3 11.28125,0 c 4.684173,0 18.28685,-0.130207 27.96875,17 C 37.951964,72.929075 32.197469,77.18391 27,79.3125 21.639339,81.507924 17.158075,81.500001 14.75,81.5 l -11.25,0 c 1.8735884,-3.108434 4.75,-9.04935 4.75,-17 0,-7.973354 -2.9085314,-13.900185 -4.78125,-17 z"
         id="path4973"
         sodipodi:nodetypes="ccsccccscccccccccsccsc"
         inkscape:connector-curvature="0" />
    </g>
  </g>
</svg>
