<?xml version="1.0" encoding="UTF-8" standalone="no"?>
<!-- Created with Inkscape (http://www.inkscape.org/) -->

<svg
   xmlns:dc="http://purl.org/dc/elements/1.1/"
   xmlns:cc="http://creativecommons.org/ns#"
   xmlns:rdf="http://www.w3.org/1999/02/22-rdf-syntax-ns#"
   xmlns:svg="http://www.w3.org/2000/svg"
   xmlns="http://www.w3.org/2000/svg"
   xmlns:sodipodi="http://sodipodi.sourceforge.net/DTD/sodipodi-0.dtd"
   xmlns:inkscape="http://www.inkscape.org/namespaces/inkscape"
   width="60"
   height="60"
   viewBox="0 0 59.999999 59.999999"
   id="svg2"
   version="1.1"
   inkscape:version="0.92.3 (2405546, 2018-03-11)"
   sodipodi:docname="github.svg">
  <defs
     id="defs4" />
  <sodipodi:namedview
     id="base"
     pagecolor="#ffffff"
     bordercolor="#666666"
     borderopacity="1.0"
     inkscape:pageopacity="0.0"
     inkscape:pageshadow="2"
     inkscape:zoom="7.9999999"
     inkscape:cx="31.51818"
     inkscape:cy="21.274549"
     inkscape:document-units="px"
     inkscape:current-layer="layer2"
     showgrid="false"
     units="px"
     inkscape:showpageshadow="false"
     borderlayer="true"
     inkscape:window-width="1366"
     inkscape:window-height="667"
     inkscape:window-x="0"
     inkscape:window-y="804"
     inkscape:window-maximized="1"
     showguides="true"
     inkscape:guide-bbox="true">
    <sodipodi:guide
       position="42.678571,17.5"
       orientation="0.70710678,0.70710678"
       id="guide971"
       inkscape:locked="false" />
    <sodipodi:guide
       position="63.214285,63.214285"
       orientation="-0.70710678,0.70710678"
       id="guide973"
       inkscape:locked="false" />
  </sodipodi:namedview>
  <metadata
     id="metadata7">
    <rdf:RDF>
      <cc:Work
         rdf:about="">
        <dc:format>image/svg+xml</dc:format>
        <dc:type
           rdf:resource="http://purl.org/dc/dcmitype/StillImage" />
        <dc:title></dc:title>
      </cc:Work>
    </rdf:RDF>
  </metadata>
  <g
     inkscape:label="original"
     inkscape:groupmode="layer"
     id="layer1"
     transform="translate(0,-992.3622)"
     style="display:none">
    <path
       style="opacity:1;fill:#011936;fill-opacity:1;stroke:none;stroke-width:2.53408957;stroke-linecap:round;stroke-linejoin:miter;stroke-miterlimit:4;stroke-dasharray:none;stroke-dashoffset:0;stroke-opacity:1"
       d="m -36.681641,1035.9755 h -16.621093 v 10.6074 h 48.605468 v -10.6074 H -21.318359 L -29,1041.6239 Z"
       id="path895"
       inkscape:connector-curvature="0" />
    <path
       sodipodi:type="star"
       style="opacity:1;fill:#011936;fill-opacity:1;stroke:none;stroke-width:2;stroke-linecap:round;stroke-linejoin:miter;stroke-miterlimit:4;stroke-dasharray:none;stroke-dashoffset:0;stroke-opacity:1"
       id="path969"
       sodipodi:sides="3"
       sodipodi:cx="15.535714"
       sodipodi:cy="1023.4336"
       sodipodi:r1="16.293114"
       sodipodi:r2="8.1465569"
       sodipodi:arg1="-0.52359878"
       sodipodi:arg2="0.52359878"
       inkscape:flatsided="true"
       inkscape:rounded="0"
       inkscape:randomized="0"
       d="M 29.645964,1015.287 15.535714,1039.7267 1.4254637,1015.287 Z"
       inkscape:transform-center-y="3.5673307"
       transform="matrix(1.4124335,0,0,0.87578743,-50.943163,128.98991)" />
    <rect
       style="opacity:1;fill:#011936;fill-opacity:1;stroke:none;stroke-width:1.95494962;stroke-linecap:round;stroke-linejoin:miter;stroke-miterlimit:4;stroke-dasharray:none;stroke-dashoffset:0;stroke-opacity:1"
       id="rect967-3-6"
       width="28.928444"
       height="10.607178"
       x="-1027.8622"
       y="-34.303589"
       ry="0"
       transform="rotate(-90)" />
    <path
       style="opacity:1;fill:#011936;fill-opacity:1;stroke:none;stroke-width:3.02362204;stroke-linecap:round;stroke-linejoin:round;stroke-miterlimit:4;stroke-dasharray:none;stroke-dashoffset:0;stroke-opacity:1"
       d="m 8.468729,998.89789 h 34.490843 c 2.418954,0 2.907674,0.94694 6.268211,4.18731 3.292244,3.1745 4.178488,4.9123 4.178488,6.7254 v 34.0248 c 0,1.0388 -0.83625,1.875 -1.875,1.875 H 8.468729 c -1.03875,0 -1.875,-0.8362 -1.875,-1.875 v -43.0625 c 0,-1.03876 0.83625,-1.87501 1.875,-1.87501 z"
       id="rect902"
       inkscape:connector-curvature="0"
       sodipodi:nodetypes="scscssssss" />
    <g
       id="g939"
       transform="matrix(1.2226107,0,0,1.2226107,-6.6783205,-222.2928)">
      <rect
         ry="1.1339344"
         y="1002.2972"
         x="20.188892"
         height="10.518213"
         width="19.622213"
         id="rect905"
         style="opacity:1;fill:#ffffff;fill-opacity:1;stroke:none;stroke-width:2.69311786;stroke-linecap:round;stroke-linejoin:round;stroke-miterlimit:4;stroke-dasharray:none;stroke-dashoffset:0;stroke-opacity:1" />
      <rect
         ry="0.97194374"
         y="1003.0857"
         x="30.935923"
         height="9.0156116"
         width="6.6291261"
         id="rect905-3"
         style="opacity:1;fill:#011936;fill-opacity:1;stroke:none;stroke-width:1.44922602;stroke-linecap:round;stroke-linejoin:round;stroke-miterlimit:4;stroke-dasharray:none;stroke-dashoffset:0;stroke-opacity:1" />
    </g>
    <rect
       style="opacity:1;fill:#ffffff;fill-opacity:1;stroke:none;stroke-width:4.04387617;stroke-linecap:round;stroke-linejoin:round;stroke-miterlimit:4;stroke-dasharray:none;stroke-dashoffset:0;stroke-opacity:1"
       id="rect905-6"
       width="31.525478"
       height="14.76091"
       x="14.031713"
       y="1023.5695"
       ry="1.5913259" />
  </g>
  <g
     inkscape:groupmode="layer"
     id="layer2"
     inkscape:label="cutout">
    <g
       transform="matrix(0.12229131,0,0,0.12229131,3.1848182,3.1846685)"
       id="g983"
       style="fill:#011936;fill-opacity:1">
      <path
         inkscape:connector-curvature="0"
         d="M 409.132,114.573 C 389.524,80.977 362.927,54.379 329.334,34.773 295.736,15.166 259.057,5.365 219.271,5.365 c -39.781,0 -76.472,9.804 -110.063,29.408 -33.596,19.605 -60.192,46.204 -79.8,79.8 C 9.803,148.168 0,184.854 0,224.63 c 0,47.78 13.94,90.745 41.827,128.906 27.884,38.164 63.906,64.572 108.063,79.227 5.14,0.954 8.945,0.283 11.419,-1.996 2.475,-2.282 3.711,-5.14 3.711,-8.562 0,-0.571 -0.049,-5.708 -0.144,-15.417 -0.098,-9.709 -0.144,-18.179 -0.144,-25.406 l -6.567,1.136 c -4.187,0.767 -9.469,1.092 -15.846,1 -6.374,-0.089 -12.991,-0.757 -19.842,-1.999 -6.854,-1.231 -13.229,-4.086 -19.13,-8.559 -5.898,-4.473 -10.085,-10.328 -12.56,-17.556 l -2.855,-6.57 c -1.903,-4.374 -4.899,-9.233 -8.992,-14.559 -4.093,-5.331 -8.232,-8.945 -12.419,-10.848 l -1.999,-1.431 c -1.332,-0.951 -2.568,-2.098 -3.711,-3.429 -1.142,-1.331 -1.997,-2.663 -2.568,-3.997 -0.572,-1.335 -0.098,-2.43 1.427,-3.289 1.525,-0.859 4.281,-1.276 8.28,-1.276 l 5.708,0.853 c 3.807,0.763 8.516,3.042 14.133,6.851 5.614,3.806 10.229,8.754 13.846,14.842 4.38,7.806 9.657,13.754 15.846,17.847 6.184,4.093 12.419,6.136 18.699,6.136 6.28,0 11.704,-0.476 16.274,-1.423 4.565,-0.952 8.848,-2.383 12.847,-4.285 1.713,-12.758 6.377,-22.559 13.988,-29.41 -10.848,-1.14 -20.601,-2.857 -29.264,-5.14 -8.658,-2.286 -17.605,-5.996 -26.835,-11.14 -9.235,-5.137 -16.896,-11.516 -22.985,-19.126 -6.09,-7.614 -11.088,-17.61 -14.987,-29.979 -3.901,-12.374 -5.852,-26.648 -5.852,-42.826 0,-23.035 7.52,-42.637 22.557,-58.817 -7.044,-17.318 -6.379,-36.732 1.997,-58.24 5.52,-1.715 13.706,-0.428 24.554,3.853 10.85,4.283 18.794,7.952 23.84,10.994 5.046,3.041 9.089,5.618 12.135,7.708 17.705,-4.947 35.976,-7.421 54.818,-7.421 18.842,0 37.117,2.474 54.823,7.421 l 10.849,-6.849 c 7.419,-4.57 16.18,-8.758 26.262,-12.565 10.088,-3.805 17.802,-4.853 23.134,-3.138 8.562,21.509 9.325,40.922 2.279,58.24 15.036,16.18 22.559,35.787 22.559,58.817 0,16.178 -1.958,30.497 -5.853,42.966 -3.9,12.471 -8.941,22.457 -15.125,29.979 -6.191,7.521 -13.901,13.85 -23.131,18.986 -9.232,5.14 -18.182,8.85 -26.84,11.136 -8.662,2.286 -18.415,4.004 -29.263,5.146 9.894,8.562 14.842,22.077 14.842,40.539 v 60.237 c 0,3.422 1.19,6.279 3.572,8.562 2.379,2.279 6.136,2.95 11.276,1.995 44.163,-14.653 80.185,-41.062 108.068,-79.226 27.88,-38.161 41.825,-81.126 41.825,-128.906 -0.01,-39.771 -9.818,-76.454 -29.414,-110.049 z"
         id="path981"
         style="fill:#011936;fill-opacity:1" />
    </g>
  </g>
</svg>
