<?xml version="1.0" encoding="UTF-8" standalone="no"?>
<!-- Created with Inkscape (http://www.inkscape.org/) -->

<svg
   xmlns:dc="http://purl.org/dc/elements/1.1/"
   xmlns:cc="http://creativecommons.org/ns#"
   xmlns:rdf="http://www.w3.org/1999/02/22-rdf-syntax-ns#"
   xmlns:svg="http://www.w3.org/2000/svg"
   xmlns="http://www.w3.org/2000/svg"
   xmlns:sodipodi="http://sodipodi.sourceforge.net/DTD/sodipodi-0.dtd"
   xmlns:inkscape="http://www.inkscape.org/namespaces/inkscape"
   width="60"
   height="60"
   viewBox="0 0 59.999999 59.999999"
   id="svg2"
   version="1.1"
   inkscape:version="0.92.2 (5c3e80d, 2017-08-06)"
   sodipodi:docname="library.svg">
  <defs
     id="defs4" />
  <sodipodi:namedview
     id="base"
     pagecolor="#ffffff"
     bordercolor="#666666"
     borderopacity="1.0"
     inkscape:pageopacity="0.0"
     inkscape:pageshadow="2"
     inkscape:zoom="2.8284271"
     inkscape:cx="-37.714675"
     inkscape:cy="27.025599"
     inkscape:document-units="px"
     inkscape:current-layer="layer1"
     showgrid="false"
     units="px"
     inkscape:showpageshadow="false"
     borderlayer="true"
     inkscape:window-width="1366"
     inkscape:window-height="667"
     inkscape:window-x="0"
     inkscape:window-y="804"
     inkscape:window-maximized="1"
     showguides="false"
     inkscape:guide-bbox="true">
    <sodipodi:guide
       position="-0.11328125,60.11328"
       orientation="0.70710678,0.70710678"
       id="guide971"
       inkscape:locked="false" />
    <sodipodi:guide
       position="63.214285,63.214285"
       orientation="-0.70710678,0.70710678"
       id="guide973"
       inkscape:locked="false" />
  </sodipodi:namedview>
  <metadata
     id="metadata7">
    <rdf:RDF>
      <cc:Work
         rdf:about="">
        <dc:format>image/svg+xml</dc:format>
        <dc:type
           rdf:resource="http://purl.org/dc/dcmitype/StillImage" />
        <dc:title></dc:title>
      </cc:Work>
    </rdf:RDF>
  </metadata>
  <g
     inkscape:label="Layer 1"
     inkscape:groupmode="layer"
     id="layer1"
     transform="translate(0,-992.3622)">
    <path
       style="opacity:1;fill:#011936;fill-opacity:1;stroke:none;stroke-width:2.61142278;stroke-linecap:round;stroke-linejoin:round;stroke-miterlimit:4;stroke-dasharray:none;stroke-dashoffset:0;stroke-opacity:1"
       d="m 14.890725,1000.9717 c -0.589241,0 -1.064394,0.4752 -1.064394,1.0644 v 3.7208 c -0.0026,0 -0.0047,0 -0.0073,0 H 4.2577758 c -0.1994972,0 -0.3590727,0.1596 -0.3590727,0.3591 v 3.0942 c 0,0.1995 0.1595755,0.3609 0.3590727,0.3609 h 9.5612262 c 0.0026,0 0.0047,0 0.0073,0 v 5.9888 c -0.0026,0 -0.0047,0 -0.0073,0 H 4.2577758 c -0.1994972,0 -0.3590727,0.1614 -0.3590727,0.3609 v 3.0942 c 0,0.1995 0.1595755,0.3591 0.3590727,0.3591 h 9.5612262 c 0.0027,0 0.0047,0 0.0073,0 v 5.9906 c -0.0026,0 -0.0047,0 -0.0073,0 H 4.2577758 c -0.1994972,0 -0.3590727,0.1596 -0.3590727,0.3591 v 3.0942 c 0,0.1995 0.1595755,0.3609 0.3590727,0.3609 h 9.5612262 c 0.0026,0 0.0047,0 0.0073,0 v 5.9888 c -0.0026,0 -0.0047,0 -0.0073,0 H 4.2577758 c -0.1994972,0 -0.3590727,0.1614 -0.3590727,0.3609 v 3.0942 c 0,0.1995 0.1595755,0.3591 0.3590727,0.3591 h 9.5612262 c 0.0027,0 0.0047,0 0.0073,0 v 3.7208 c 0,0.5892 0.475153,1.0644 1.064394,1.0644 H 45.09677 c 0.589241,0 1.064395,-0.4752 1.064395,-1.0644 v -7.3922 h 9.378026 c 0.199498,0 0.360905,-0.1614 0.360905,-0.3609 v -3.0924 c 0,-0.1995 -0.161407,-0.3609 -0.360905,-0.3609 h -9.378026 v -7.2126 h 9.378026 c 0.199498,0 0.360905,-0.1614 0.360905,-0.3609 v -3.0924 c 0,-0.1995 -0.161407,-0.3609 -0.360905,-0.3609 h -9.378026 v -7.2126 h 9.378026 c 0.199498,0 0.360905,-0.1614 0.360905,-0.3609 v -3.0924 c 0,-0.1995 -0.161407,-0.3609 -0.360905,-0.3609 h -9.378026 v -7.3922 c 0,-0.5892 -0.475154,-1.0644 -1.064395,-1.0644 z"
       id="rect1012"
       inkscape:connector-curvature="0" />
  </g>
</svg>
