<svg xmlns="http://www.w3.org/2000/svg" width="90" height="40" id="svg2" version="1.0"><g id="layer1" transform="translate(-5 -5)"><path d="M32 7v36h19l9-3 5-5 3-8v-4l-3-8-5-5-9-3z" id="path4884" fill="#fff" fill-rule="evenodd" stroke="none" stroke-width="1" stroke-linecap="butt" stroke-linejoin="miter" stroke-opacity="1" fill-opacity="1"/><path d="M70 25h25" id="path3059" fill="none" stroke="#000" stroke-width="2" stroke-linecap="butt" stroke-linejoin="miter" stroke-opacity="1"/><path d="M31 15H5" id="path3061" fill="none" stroke="#000" stroke-width="2" stroke-linecap="butt" stroke-linejoin="miter" stroke-opacity="1"/><path d="M32 35H5" id="path3944" fill="none" stroke="#000" stroke-width="2" stroke-linecap="butt" stroke-linejoin="miter" stroke-opacity="1"/><path style="line-height:normal;-inkscape-font-specification:'Bitstream Vera Sans';text-indent:0;text-align:start;text-decoration-line:none;text-transform:none;block-progression:tb;marker:none" d="M30 5v40h20.476c11.268 0 20-9 20-20s-8.732-20-20-20H30zm2.857 2.857h17.619c9.76 0 16.667 7.64 16.667 17.143S59.76 42.143 50 42.143H32.857V7.857z" id="path2884" font-style="normal" font-variant="normal" font-weight="400" font-stretch="normal" font-size="medium" font-family="Bitstream Vera Sans" text-decoration="none" letter-spacing="normal" word-spacing="normal" direction="ltr" writing-mode="lr-tb" text-anchor="start" display="inline" overflow="visible" visibility="visible" fill="#000" fill-opacity="1" stroke="none" stroke-width="3"/></g></svg>