<svg xmlns="http://www.w3.org/2000/svg" height="60" width="60" version="1.1" viewBox="0 0 59.999999 59.999999">
 <g transform="translate(0,-992.3622)">
  <path d="m9.0703125 2l-7.0703125 7.0703125 10.392578 10.3925785-6.4648436 6.464843h19.9999996v-19.9999996l-6.464843 6.4648436-10.3925785-10.392578zm41.8593755 0l-10.392579 10.392578-6.464843-6.4648436v19.9999996h20l-6.464844-6.464843 10.392578-10.3925785-7.070312-7.0703125zm-45.0019536 32.072266l6.4648436 6.464843-10.392578 10.392579 7.0703125 7.070312 10.3925785-10.392578 6.464843 6.464844v-20h-19.9999996zm28.1445316 0v20l6.464843-6.464844 10.392579 10.392578 7.070312-7.070312-10.392578-10.392579 6.464844-6.464843h-20z" transform="translate(0,992.3622)" fill="#011936"/>
 </g>
</svg>
