<svg xmlns="http://www.w3.org/2000/svg" width="60" height="60" viewBox="0 0 59.999999 59.999999" id="svg2"><g id="layer1" transform="translate(0 -992.362)"><path d="M5 5v20l6.465-6.465 10.392 10.393 7.07-7.07-10.392-10.393L25 5H5zm30 0l6.465 6.465-10.393 10.392 7.07 7.07 10.393-10.392L55 25V5H35zM21.857 31.072L11.465 41.465 5 35v20h20l-6.465-6.465 10.393-10.392-7.07-7.07zm16.286 0l-7.07 7.07 10.392 10.393L35 55h20V35l-6.465 6.465-10.392-10.393z" transform="translate(0 992.362)" id="rect4136-3" fill="#011936" stroke-width="2" stroke-linecap="round" stroke-miterlimit="10"/></g></svg>