<svg xmlns="http://www.w3.org/2000/svg" height="60" width="60" version="1.1" viewBox="0 0 59.999999 59.999999">
 <g transform="translate(0,-992.3622)">
  <path d="m5 5v20l6.464844-6.464844 10.392578 10.392578 7.070312-7.070312-10.392578-10.392578 6.464844-6.464844h-20zm30 0l6.464844 6.464844-10.392578 10.392578 7.070312 7.070312 10.392578-10.392578 6.464844 6.464844v-20h-20zm-13.142578 26.072266l-10.392578 10.392578-6.464844-6.464844v20h20l-6.464844-6.464844 10.392578-10.392578-7.070312-7.070312zm16.285156 0l-7.070312 7.070312 10.392578 10.392578-6.464844 6.464844h20v-20l-6.464844 6.464844-10.392578-10.392578z" transform="translate(0,992.3622)" fill="#011936"/>
 </g>
</svg>
