<svg xmlns="http://www.w3.org/2000/svg" width="311.159" height="460.238" viewBox="0 0 291.71191 431.47314" id="svg4381"><g id="layer1" transform="translate(-202.71 -260.923)" fill="#011936" stroke-linecap="round"><path d="M202.811 443.507c-.126 11.056.065 12.129.053 23.093 1.04 39.292-4.033 79.585 8.814 117.569 17.526 58.007 70.761 107.078 133.13 108.117 60.804 2.612 115.806-41.49 136.652-96.936 15.22-34.705 12.745-72.826 12.834-109.722-.404-17.25.274-24.733.088-42.121h-291.57z" id="rect4929-9-6" stroke-width="2" stroke-miterlimit="10"/><path d="M335.678 260.93c-58.653.656-99.632 43.514-120.082 96.993-10.55 24.06-12.594 41.777-12.887 67.582h135.783V260.932h-.017a130.41 130.41 0 0 0-2.797-.002z" id="rect4929-9-62-7" stroke-width="2" stroke-miterlimit="10"/><path d="M361.468 260.93c-.942-.01-1.887-.01-2.832.004v164.572H494.42c-.263-24.47-2.252-40.748-11.504-63.902-19.347-55.032-61.73-100.045-121.45-100.674z" id="rect4929-9-62" stroke-width="2" stroke-miterlimit="10"/><path d="M348.565 294.934a27.083 27.083 0 0 1 27.143 27.143v40a27.083 27.083 0 0 1-27.143 27.142 27.083 27.083 0 0 1-27.143-27.142v-40a27.083 27.083 0 0 1 27.143-27.143z" id="rect4983" stroke="#fff" stroke-width="20"/></g></svg>