<?xml version="1.0" encoding="UTF-8" standalone="no"?>
<!-- Created with Inkscape (http://www.inkscape.org/) -->

<svg
   xmlns:dc="http://purl.org/dc/elements/1.1/"
   xmlns:cc="http://creativecommons.org/ns#"
   xmlns:rdf="http://www.w3.org/1999/02/22-rdf-syntax-ns#"
   xmlns:svg="http://www.w3.org/2000/svg"
   xmlns="http://www.w3.org/2000/svg"
   xmlns:sodipodi="http://sodipodi.sourceforge.net/DTD/sodipodi-0.dtd"
   xmlns:inkscape="http://www.inkscape.org/namespaces/inkscape"
   width="82.327583mm"
   height="121.77131mm"
   viewBox="0 0 291.71191 431.47314"
   id="svg4381"
   version="1.1"
   inkscape:version="0.91 r13725"
   sodipodi:docname="mouse.svg">
  <defs
     id="defs4383" />
  <sodipodi:namedview
     id="base"
     pagecolor="#ffffff"
     bordercolor="#666666"
     borderopacity="1.0"
     inkscape:pageopacity="0.0"
     inkscape:pageshadow="2"
     inkscape:zoom="0.7"
     inkscape:cx="69.072294"
     inkscape:cy="253.8256"
     inkscape:document-units="px"
     inkscape:current-layer="layer1"
     showgrid="false"
     inkscape:window-width="1366"
     inkscape:window-height="667"
     inkscape:window-x="0"
     inkscape:window-y="804"
     inkscape:window-maximized="1"
     inkscape:snap-to-guides="false"
     fit-margin-top="0"
     fit-margin-left="0"
     fit-margin-right="0"
     fit-margin-bottom="0"
     inkscape:showpageshadow="false"
     borderlayer="true" />
  <metadata
     id="metadata4386">
    <rdf:RDF>
      <cc:Work
         rdf:about="">
        <dc:format>image/svg+xml</dc:format>
        <dc:type
           rdf:resource="http://purl.org/dc/dcmitype/StillImage" />
        <dc:title></dc:title>
      </cc:Work>
    </rdf:RDF>
  </metadata>
  <g
     inkscape:label="Layer 1"
     inkscape:groupmode="layer"
     id="layer1"
     transform="translate(-202.70908,-260.9232)">
    <path
       style="opacity:1;fill:#011936;fill-opacity:1;stroke:none;stroke-width:2;stroke-linecap:round;stroke-linejoin:miter;stroke-miterlimit:10;stroke-dasharray:none;stroke-dashoffset:0;stroke-opacity:1"
       d="m 202.81108,443.50667 c -0.1257,11.05683 0.0651,12.12915 0.0528,23.09375 1.0404,39.29165 -4.03281,79.5842 8.81441,117.56836 17.52602,58.00742 70.7612,107.07793 133.12907,108.11719 60.80448,2.61247 115.80638,-41.48912 136.65249,-96.93555 15.21942,-34.70561 12.7447,-72.82638 12.834,-109.72266 -0.40356,-17.24905 0.27452,-24.7329 0.0879,-42.12109 l -291.57066,0 z"
       id="rect4929-9-6"
       inkscape:connector-curvature="0"
       sodipodi:nodetypes="ccccccccc" />
    <path
       style="opacity:1;fill:#011936;fill-opacity:1;stroke:none;stroke-width:2;stroke-linecap:round;stroke-linejoin:miter;stroke-miterlimit:10;stroke-dasharray:none;stroke-dashoffset:0;stroke-opacity:1"
       d="m 335.67788,260.93032 c -58.6525,0.65566 -99.6319,43.51386 -120.0821,96.99219 -10.5505,24.06012 -12.5935,41.77797 -12.8867,67.58203 l 135.7832,0 0,-164.57226 c -0.006,8e-5 -0.0117,-8e-5 -0.0176,0 -0.9347,-0.011 -1.8658,-0.0124 -2.7968,-0.002 z"
       id="rect4929-9-62-7"
       inkscape:connector-curvature="0"
       sodipodi:nodetypes="cccccccc" />
    <path
       style="opacity:1;fill:#011936;fill-opacity:1;stroke:none;stroke-width:2;stroke-linecap:round;stroke-linejoin:miter;stroke-miterlimit:10;stroke-dasharray:none;stroke-dashoffset:0;stroke-opacity:1"
       d="m 361.46787,260.92993 c -0.94207,-0.01 -1.8864,-0.009 -2.83203,0.004 l 0,164.57226 135.78516,0 C 494.15843,401.03671 492.1689,384.75796 482.91709,361.60376 463.57,306.57151 421.18666,261.55851 361.46787,260.92993 Z"
       id="rect4929-9-62"
       inkscape:connector-curvature="0"
       sodipodi:nodetypes="cccccc" />
    <path
       style="opacity:1;fill:#011936;fill-opacity:1;stroke:#ffffff;stroke-width:20;stroke-linecap:round;stroke-linejoin:miter;stroke-miterlimit:4;stroke-dasharray:none;stroke-dashoffset:0;stroke-opacity:1"
       d="m 348.56504,294.93365 c 15.03714,0 27.14286,12.10572 27.14286,27.14286 l 0,40 c 0,15.03714 -12.10572,27.14286 -27.14286,27.14286 -15.03714,0 -27.14286,-12.10572 -27.14286,-27.14286 l 0,-40 c 0,-15.03714 12.10572,-27.14286 27.14286,-27.14286 z"
       id="rect4983" />
  </g>
</svg>
