<svg xmlns="http://www.w3.org/2000/svg" width="60" height="60" viewBox="0 0 59.999999 59.999999" id="svg2"><g id="layer1" transform="translate(0 -992.362)"><path d="M9.07 2L2 9.07l10.393 10.393-6.465 6.465h20v-20l-6.465 6.465L9.07 2zm41.86 0L40.537 12.393l-6.465-6.465v20h20l-6.465-6.465L58 9.07 50.93 2zM5.928 34.072l6.465 6.465L2 50.93 9.07 58l10.393-10.393 6.465 6.465v-20h-20zm28.144 0v20l6.465-6.465L50.93 58 58 50.93 47.607 40.537l6.465-6.465h-20z" transform="translate(0 992.362)" id="rect4136-3" fill="#011936" stroke-width="2" stroke-linecap="round" stroke-miterlimit="10"/></g></svg>