<svg xmlns="http://www.w3.org/2000/svg" width="60" height="60" id="svg2" version="1.1"><g id="layer1" transform="translate(0 -992.362)"><path d="M14.89 1000.972c-.589 0-1.064.475-1.064 1.064v3.72H4.258c-.2 0-.36.16-.36.36v3.094c0 .2.16.361.36.361h9.568v5.989H4.258a.36.36 0 00-.36.36v3.095c0 .2.16.36.36.36h9.568v5.99H4.258c-.2 0-.36.16-.36.359v3.094c0 .2.16.36.36.36h9.568v5.99H4.258a.36.36 0 00-.36.36v3.095c0 .2.16.359.36.359h9.568v3.72c0 .59.475 1.065 1.065 1.065h30.206c.589 0 1.064-.475 1.064-1.064v-7.393h9.378c.2 0 .361-.16.361-.36v-3.093a.36.36 0 00-.36-.36h-9.38v-7.213h9.378a.36.36 0 00.361-.361v-3.093a.36.36 0 00-.36-.36H46.16v-7.213h9.378a.36.36 0 00.361-.361v-3.092a.36.36 0 00-.36-.361H46.16v-7.393c0-.589-.475-1.064-1.064-1.064z" id="rect1012" opacity="1" fill="#011936" fill-opacity="1" stroke="none" stroke-width="2.611" stroke-linecap="round" stroke-linejoin="round" stroke-miterlimit="4" stroke-dasharray="none" stroke-dashoffset="0" stroke-opacity="1"/></g></svg>