<svg xmlns="http://www.w3.org/2000/svg" width="10mm" height="10mm" viewBox="0 0 10 10" id="svg8"><g id="layer1" transform="translate(0 -287)"><path d="M9.609 290.062a5 5 0 0 0-2.722-2.689l-.392.962a3.96 3.96 0 0 1 2.156 2.13 3.96 3.96 0 0 1-2.116 5.186 3.96 3.96 0 0 1-5.186-2.115 3.96 3.96 0 0 1 2.115-5.187l-.403-.958a5 5 0 0 0-2.67 6.548 5 5 0 0 0 6.547 2.67 5 5 0 0 0 2.67-6.547zm-6.548-2.67a5 5 0 0 1 .401-.146 5 5 0 0 0-.4.145zm3.791-.035a5 5 0 0 0-.141-.05 5 5 0 0 1 .141.05zm-.44-.15a5 5 0 0 0-.228-.059 5 5 0 0 1 .227.059zm-.485-.117a5 5 0 0 0-.237-.036 5 5 0 0 1 .237.036zm-.493-.068a5 5 0 0 0-.248-.013 5 5 0 0 1 .248.013zm-.497-.018a5 5 0 0 0-.245.011 5 5 0 0 1 .245-.011zm-.502.031a5 5 0 0 0-.239.036 5 5 0 0 1 .239-.036zm-.492.081a5 5 0 0 0-.237.06 5 5 0 0 1 .237-.06z" id="path836" fill="#011936" stroke-width="1.129" stroke-linecap="round" stroke-linejoin="round"/></g></svg>