<svg xmlns="http://www.w3.org/2000/svg" width="90" height="40" id="svg2" version="1.0"><g id="layer1" transform="translate(-5 -5)"><path d="M32 43V7h18c25 0 25 36 0 36H32" id="path6375" fill="#fff" fill-opacity="1" fill-rule="evenodd" stroke="none" stroke-width="1" stroke-linecap="butt" stroke-linejoin="miter" stroke-opacity="1"/><circle id="path4736" cx="75.022" cy="24.966" r="3" opacity="1" fill="#fff" fill-opacity="1" stroke="none" stroke-width=".5" stroke-linecap="round" stroke-linejoin="miter" stroke-miterlimit="10" stroke-dasharray="none" stroke-dashoffset="0" stroke-opacity="1"/><path d="M79 25h16" id="path3059" fill="none" stroke="#000" stroke-width="2" stroke-linecap="butt" stroke-linejoin="miter" stroke-opacity="1"/><path d="M31 15H5" id="path3061" fill="none" stroke="#000" stroke-width="2" stroke-linecap="butt" stroke-linejoin="miter" stroke-opacity="1"/><path d="M32 35H5" id="path3944" fill="none" stroke="#000" stroke-width="2" stroke-linecap="butt" stroke-linejoin="miter" stroke-opacity="1"/><path style="line-height:normal;-inkscape-font-specification:'Bitstream Vera Sans';text-indent:0;text-align:start;text-decoration-line:none;text-transform:none;block-progression:tb;marker:none" d="M30 5v40h20.476c11.268 0 20-9 20-20s-8.732-20-20-20H30zm2.857 2.857h17.619c9.76 0 16.667 7.64 16.667 17.143S59.76 42.143 50 42.143H32.857V7.857z" id="path2884" font-style="normal" font-variant="normal" font-weight="400" font-stretch="normal" font-size="medium" font-family="Bitstream Vera Sans" text-decoration="none" letter-spacing="normal" word-spacing="normal" direction="ltr" writing-mode="lr-tb" text-anchor="start" display="inline" overflow="visible" visibility="visible" fill="#000" fill-opacity="1" stroke="none" stroke-width="3"/><circle style="marker:none" id="path4008" cx="75" cy="25" r="4" display="inline" overflow="visible" visibility="visible" fill="none" fill-opacity="1" stroke="#000" stroke-width="3" stroke-linejoin="miter" stroke-opacity="1"/></g></svg>