<svg xmlns="http://www.w3.org/2000/svg" width="90" height="40" id="svg2" version="1"><g id="layer1" transform="translate(-5 -5)"><path d="M70 25h25" id="path3059" fill="none" stroke="#000" stroke-width="2"/><path d="M31 15H5" id="path3061" fill="none" stroke="#000" stroke-width="2"/><path d="M32 35H5" id="path3944" fill="none" stroke="#000" stroke-width="2"/><g id="g2560" transform="translate(26.5 -39.5)" fill-rule="evenodd"><path d="M1.75 46.302c14.175.68 28.193-3.854 43 18-11.187 20.271-27.303 18.187-43 18 6.833-11.75 6.833-23.75 0-36z" id="path4738" fill="#fff"/><path d="M-2.406 44.5l2 2.438s5.656 7 5.656 17.562c0 10.562-5.656 17.563-5.656 17.563l-2 2.437H14.75c2.408 0 7.69.025 13.625-2.406s12.537-7.344 17.688-16.875L44.75 64.5l1.313-.719C35.758 44.716 19.506 44.5 14.75 44.5H-2.406zm5.875 3H14.75c4.684 0 18.287-.13 27.969 17C37.952 72.93 32.197 77.184 27 79.313c-5.36 2.195-9.842 2.187-12.25 2.187H3.5c1.874-3.108 4.75-9.05 4.75-17 0-7.973-2.909-13.9-4.781-17z" id="path4973" stroke-width="3"/></g></g></svg>